# Blender v2.90.1 OBJ File: 'untitled.blend'
# www.blender.org
mtllib face02.mtl
o Cube_Cube.001
v -3.485692 0.039265 -2.525768
v -3.485692 0.866539 -3.231312
v -3.485692 1.693806 -2.668652
v -3.485692 2.521080 -2.037231
v -3.485692 3.348354 -1.317295
v -3.485692 4.175628 -1.584667
v -3.485692 5.002902 -1.901927
v -3.485692 5.830169 -2.060442
v -3.485692 6.657443 -2.023972
v -3.485692 7.484717 -2.245578
v -3.485692 8.311990 -2.780413
v -3.485692 9.139266 -4.542033
v -2.849329 0.039265 -2.556078
v -2.849329 0.866539 -1.432711
v -2.849329 1.693806 -1.130437
v -2.849329 2.521079 -0.584241
v -2.849329 3.348353 -0.404593
v -2.849329 4.175627 -0.563906
v -2.849329 5.002902 -0.952147
v -2.849329 5.830169 -0.707475
v -2.849329 6.657442 -0.907878
v -2.849329 7.484716 -1.142560
v -2.849329 8.311990 -1.344979
v -2.849329 9.139265 -2.429734
v -2.212966 0.039265 -1.756202
v -2.212966 0.866538 -0.920703
v -2.212966 1.693805 -0.396074
v -2.212966 2.521079 -0.080591
v -2.212966 3.348353 0.103110
v -2.212966 4.175627 -0.291543
v -2.212966 5.002902 -0.417067
v -2.212966 5.830169 -0.183140
v -2.212966 6.657442 -0.227877
v -2.212966 7.484716 -0.400679
v -2.212966 8.311990 -0.773716
v -2.212966 9.139265 -1.502038
v -1.576603 0.039264 -1.146411
v -1.576603 0.866538 -0.429282
v -1.576603 1.693805 -0.221291
v -1.576603 2.521079 0.268058
v -1.576603 3.348353 0.268058
v -1.576603 4.175627 -0.044604
v -1.576603 5.002902 -0.161882
v -1.576603 5.830169 -0.033795
v -1.576603 6.657442 0.095768
v -1.576603 7.484716 -0.024597
v -1.576603 8.311990 -0.229263
v -1.576603 9.139265 -0.811026
v -0.940240 0.039264 -0.100233
v -0.940240 0.866538 0.177415
v -0.940240 1.693805 0.268058
v -0.940240 2.521079 0.268058
v -0.940240 3.348353 0.268058
v -0.940240 4.175627 0.268058
v -0.940240 5.002902 -0.216167
v -0.940240 5.830169 0.223973
v -0.940240 6.657442 0.310353
v -0.940240 7.484716 0.268066
v -0.940240 8.311990 -0.001917
v -0.940240 9.139265 -0.527225
v -0.303877 0.039264 0.305998
v -0.303877 0.866538 0.390922
v -0.303877 1.693805 0.589743
v -0.303877 2.521079 0.268058
v -0.303877 3.348353 1.270388
v -0.303877 4.175627 0.799876
v -0.303877 5.002902 0.243957
v -0.303877 5.830169 0.356798
v -0.303877 6.657442 0.404293
v -0.303877 7.484716 0.365849
v -0.303877 8.311990 0.268066
v -0.303877 9.139265 -0.347136
v 0.332493 0.039264 0.367871
v 0.332493 0.866538 0.465122
v 0.332493 1.693805 0.696843
v 0.332493 2.521079 0.600985
v 0.332493 3.348353 1.475607
v 0.499744 4.175627 0.975590
v 0.332493 5.002902 0.468181
v 0.332493 5.830169 0.427827
v 0.332493 6.657442 0.447588
v 0.332493 7.484716 0.358912
v 0.332493 8.311990 0.133113
v 0.332493 9.139265 -0.335586
v 0.968856 0.039264 0.181986
v 0.968856 0.866538 0.249172
v 0.968856 1.693805 0.308721
v 0.968856 2.521079 0.347816
v 0.968856 3.348353 0.904638
v 0.968856 4.175627 0.258146
v 0.968856 5.002902 -0.270088
v 0.968856 5.830169 0.137390
v 0.968856 6.657442 0.370588
v 0.968856 7.484716 0.324122
v 0.968856 8.311990 0.150774
v 0.968856 9.139265 -0.471036
v 1.605219 0.039264 -0.492639
v 1.605219 0.866538 -0.284662
v 1.605219 1.693805 -0.226933
v 1.535996 2.521079 0.068677
v 1.605219 3.348353 0.208341
v 1.605219 4.175627 -0.198513
v 1.605219 5.002902 -0.179053
v 1.605219 5.830169 0.036975
v 1.605219 6.657442 0.171480
v 1.605219 7.484716 0.248424
v 1.605219 8.311990 -0.059002
v 1.605219 9.139265 -0.731450
v 2.241582 0.039264 -1.129464
v 2.241582 0.866538 -0.676116
v 2.241582 1.693805 -0.407764
v 2.241582 2.521079 0.046501
v 2.241582 3.348353 0.078295
v 2.241582 4.175627 -0.235886
v 2.241582 5.002902 -0.333445
v 2.241582 5.830169 -0.031310
v 2.241582 6.657442 -0.148847
v 2.241582 7.484716 -0.299137
v 2.241582 8.311990 -0.639428
v 2.241582 9.139265 -1.366091
v 2.877945 0.039264 -1.178485
v 2.877945 0.866539 -1.343055
v 2.877945 1.693805 -0.787087
v 2.877945 2.521079 -0.387716
v 2.877945 3.348353 -0.250012
v 2.877945 4.175627 -0.603078
v 2.877945 5.002902 -0.852390
v 2.877945 5.830169 -0.540546
v 2.877945 6.657442 -0.693937
v 2.877945 7.484716 -0.832474
v 2.877945 8.311990 -1.196327
v 2.877945 9.139265 -2.061989
v 3.514308 0.039265 -2.431926
v 3.514308 0.866539 -1.542170
v 3.514308 1.693806 -1.877841
v 3.514308 2.521080 -1.216733
v 3.514308 3.348354 -1.157947
v 3.514308 4.175627 -1.320690
v 3.514308 5.002902 -1.264179
v 3.514308 5.830169 -1.158093
v 3.514308 6.657442 -1.297862
v 3.514308 7.484717 -1.974132
v 3.514308 8.311990 -2.300745
v 3.514308 9.139266 -2.959256
vt 0.329223 0.620902
vt 0.344142 0.665499
vt 0.263059 0.676120
vt 0.303258 0.867218
vt 0.184436 0.910914
vt 0.256056 0.825212
vt 0.339372 0.571385
vt 0.273392 0.579613
vt 0.281066 0.530375
vt 0.341397 0.710389
vt 0.271871 0.722036
vt 0.339003 0.801500
vt 0.440197 0.385431
vt 0.442891 0.432029
vt 0.398664 0.431125
vt 0.412809 0.479549
vt 0.375252 0.481440
vt 0.420353 0.657701
vt 0.426257 0.700794
vt 0.389783 0.703851
vt 0.333050 0.483572
vt 0.341896 0.526913
vt 0.338976 0.756238
vt 0.270236 0.770523
vt 0.751142 0.811936
vt 0.769809 0.869190
vt 0.708637 0.855660
vt 0.682763 0.794701
vt 0.655767 0.846495
vt 0.637868 0.788704
vt 0.605856 0.836454
vt 0.594230 0.780968
vt 0.567038 0.834127
vt 0.560560 0.779578
vt 0.530255 0.832772
vt 0.528200 0.781558
vt 0.494711 0.833701
vt 0.457441 0.837084
vt 0.461581 0.784294
vt 0.417966 0.840882
vt 0.426895 0.787019
vt 0.361295 0.327801
vt 0.389936 0.384244
vt 0.344194 0.386135
vt 0.365841 0.852645
vt 0.746656 0.761465
vt 0.675947 0.746505
vt 0.632245 0.742027
vt 0.590378 0.737629
vt 0.558905 0.737506
vt 0.527004 0.737830
vt 0.495737 0.779189
vt 0.462470 0.740171
vt 0.427258 0.743442
vt 0.383809 0.794697
vt 0.363636 0.436199
vt 0.310710 0.435051
vt 0.723745 0.705256
vt 0.675272 0.701174
vt 0.630587 0.697968
vt 0.559077 0.695491
vt 0.494792 0.738440
vt 0.493359 0.696514
vt 0.460565 0.698389
vt 0.245694 0.477944
vt 0.413919 0.613368
vt 0.386554 0.661289
vt 0.721425 0.657627
vt 0.672318 0.655994
vt 0.593456 0.696457
vt 0.597679 0.653205
vt 0.563083 0.650448
vt 0.526129 0.695462
vt 0.525325 0.651111
vt 0.490791 0.653111
vt 0.456800 0.655751
vt 0.264797 0.628948
vt 0.415693 0.522033
vt 0.382906 0.523502
vt 0.683875 0.609111
vt 0.630264 0.654887
vt 0.637817 0.609063
vt 0.602682 0.608833
vt 0.572808 0.606972
vt 0.523184 0.604265
vt 0.485501 0.608029
vt 0.445375 0.610933
vt 0.299498 0.388336
vt 0.310294 0.328438
vt 0.729335 0.562971
vt 0.726604 0.610337
vt 0.675269 0.561723
vt 0.634674 0.563107
vt 0.600812 0.566652
vt 0.562176 0.563942
vt 0.490678 0.558521
vt 0.451274 0.563575
vt 0.413281 0.568363
vt 0.389540 0.747496
vt 0.723016 0.515071
vt 0.662847 0.515454
vt 0.626284 0.516442
vt 0.591137 0.518235
vt 0.544642 0.520658
vt 0.525743 0.554822
vt 0.516032 0.524578
vt 0.448267 0.520350
vt 0.376492 0.570148
vt 0.666368 0.472035
vt 0.626329 0.473977
vt 0.554397 0.472424
vt 0.516269 0.474687
vt 0.497134 0.523663
vt 0.477769 0.474998
vt 0.445658 0.476987
vt 0.723330 0.467840
vt 0.677521 0.423308
vt 0.635788 0.424196
vt 0.589128 0.471298
vt 0.598908 0.423743
vt 0.553466 0.426976
vt 0.481654 0.430081
vt 0.217248 0.425365
vt 0.376176 0.616253
vt 0.748358 0.412966
vt 0.696239 0.368087
vt 0.641890 0.374980
vt 0.598914 0.377158
vt 0.551672 0.380708
vt 0.514270 0.429648
vt 0.513812 0.383326
vt 0.477672 0.384480
vt 0.431661 0.336632
vt 0.193626 0.372287
vt 0.250383 0.327686
vt 0.735495 0.363726
vt 0.689546 0.318501
vt 0.653460 0.322085
vt 0.602609 0.328474
vt 0.549953 0.333587
vt 0.511980 0.335905
vt 0.475244 0.337180
vt 0.216277 0.313353
vt 0.769809 0.301711
vn -0.8609 0.0176 0.5085
vn -0.8800 -0.4407 0.1772
vn -0.8710 -0.0110 0.4911
vn -0.8159 0.5234 0.2458
vn -0.8068 0.0887 0.5841
vn -0.8572 0.2485 0.4512
vn -0.8417 0.1857 0.5070
vn -0.9076 0.1538 0.3906
vn -0.7697 -0.2350 0.5936
vn -0.8460 -0.0827 0.5268
vn -0.8845 0.2529 0.3921
vn -0.6449 0.7088 0.2857
vn -0.8133 0.4565 0.3607
vn -0.6780 -0.1778 0.7132
vn -0.4803 0.0525 0.8755
vn -0.6031 -0.0815 0.7935
vn -0.1916 -0.3051 0.9328
vn -0.6488 -0.5820 0.4903
vn -0.4605 -0.4815 0.7457
vn -0.1857 0.0878 0.9787
vn -0.7132 -0.4159 0.5642
vn -0.4741 -0.1623 0.8654
vn -0.8140 -0.1233 0.5676
vn -0.8609 0.1417 0.4886
vn -0.8558 0.1229 0.5025
vn -0.8578 0.1301 0.4972
vn 0.7409 0.4183 0.5255
vn 0.6028 0.5768 0.5512
vn 0.5996 0.5281 0.6013
vn 0.3027 0.6012 0.7396
vn 0.1677 0.5923 0.7880
vn -0.0158 0.4929 0.8700
vn -0.2324 0.5214 0.8211
vn -0.3427 0.5404 0.7685
vn -0.6042 -0.5715 0.5553
vn -0.4739 -0.5518 0.6862
vn -0.4887 -0.5655 0.6644
vn -0.6623 0.5957 0.4543
vn 0.8501 0.1934 0.4898
vn 0.6252 0.3142 0.7144
vn 0.6448 0.2908 0.7069
vn 0.2952 0.3328 0.8956
vn -0.0272 0.2050 0.9784
vn 0.2004 0.2580 0.9451
vn -0.3740 0.2877 0.8816
vn -0.3277 0.2269 0.9171
vn -0.5442 0.5544 0.6297
vn -0.7325 0.4499 0.5110
vn -0.6413 0.5070 0.5759
vn -0.5927 -0.2626 0.7614
vn -0.7840 -0.5154 0.3460
vn -0.6933 -0.3777 0.6137
vn 0.8116 0.3698 0.4524
vn 0.6371 0.1273 0.7602
vn 0.6455 0.1384 0.7512
vn 0.6447 0.1367 0.7521
vn 0.6461 0.1364 0.7509
vn 0.1179 0.0557 0.9915
vn 0.0545 0.0560 0.9969
vn 0.0109 0.0464 0.9989
vn -0.1464 0.0463 0.9881
vn -0.1517 0.0505 0.9871
vn -0.1513 0.0501 0.9872
vn -0.4142 0.1310 0.9007
vn -0.8597 -0.3452 0.3765
vn -0.9073 -0.1373 0.3974
vn -0.8897 -0.2379 0.3896
vn -0.3897 -0.2775 0.8781
vn -0.0227 0.0084 0.9997
vn -0.1870 -0.1185 0.9752
vn 0.6833 0.1216 0.7200
vn 0.6834 0.1203 0.7201
vn 0.6833 0.1214 0.7200
vn 0.6442 0.1394 0.7521
vn 0.6444 0.1370 0.7523
vn 0.4450 -0.1437 0.8839
vn 0.2884 -0.2598 0.9216
vn 0.1201 -0.0237 0.9925
vn -0.0679 -0.0238 0.9974
vn -0.1458 -0.0567 0.9877
vn -0.3180 -0.0985 0.9430
vn -0.8262 0.2493 0.5052
vn -0.7913 0.1570 0.5909
vn -0.8088 0.1989 0.5535
vn -0.5088 -0.2266 0.8305
vn 0.0882 0.2606 0.9614
vn -0.1860 0.0540 0.9811
vn 0.6723 -0.2611 0.6927
vn 0.6067 -0.2800 0.7440
vn 0.6009 -0.2742 0.7509
vn 0.6011 -0.2742 0.7506
vn 0.1033 -0.2513 0.9624
vn 0.1402 -0.4375 0.8882
vn 0.4148 0.0443 0.9088
vn -0.1108 0.0484 0.9927
vn -0.2025 -0.1323 0.9703
vn -0.3367 -0.4423 0.8313
vn -0.6935 -0.3966 0.6014
vn -0.3995 -0.0999 0.9113
vn -0.5742 -0.2653 0.7745
vn -0.4256 -0.6261 0.6533
vn -0.6129 -0.6443 0.4574
vn 0.5424 -0.0573 0.8382
vn 0.6154 0.2274 0.7547
vn 0.2342 0.1139 0.9655
vn -0.1416 -0.0233 0.9897
vn 0.6991 0.3848 0.6026
vn -0.2807 0.5353 0.7966
vn -0.5294 0.4286 0.7322
vn 0.0842 0.1399 0.9866
vn -0.4559 0.1345 0.8798
vn -0.5678 0.2435 0.7863
vn -0.4934 0.1699 0.8531
vn -0.5018 0.2122 0.8386
vn -0.7252 0.4499 0.5213
vn -0.5993 0.3082 0.7388
vn 0.7419 0.1294 0.6579
vn 0.4688 0.3467 0.8124
vn 0.0548 0.3545 0.9334
vn 0.5414 0.3710 0.7545
vn 0.7695 0.3932 0.5032
vn -0.1804 0.5352 0.8252
vn -0.6413 -0.0000 0.7673
vn -0.4176 0.3212 0.8500
vn -0.2605 0.3603 0.8957
vn -0.4515 0.4815 0.7512
vn -0.3025 0.3882 0.8705
vn -0.5381 0.3074 0.7848
vn 0.0912 -0.2026 0.9750
vn -0.4147 0.1972 0.8883
vn 0.8152 -0.0951 0.5714
vn 0.4582 -0.0341 0.8882
vn 0.2001 -0.0376 0.9791
vn 0.6721 -0.4134 0.6143
vn 0.5248 -0.6184 0.5849
vn -0.2164 -0.7093 0.6709
vn -0.7080 -0.5446 0.4495
vn 0.0000 -0.0000 1.0000
vn -0.7193 0.1355 0.6814
vn -0.7754 0.2377 0.5851
vn -0.7487 0.1858 0.6363
vn -0.6249 0.0284 0.7802
vn -0.7964 0.3125 0.5177
vn -0.7222 0.1663 0.6714
vn 0.7610 -0.2820 0.5842
vn 0.5133 -0.4131 0.7523
vn 0.0296 -0.3341 0.9421
vn 0.4412 -0.0424 0.8964
vn 0.3693 -0.0439 0.9283
vn -0.4383 0.3258 0.8377
vn -0.4278 0.3276 0.8424
vn -0.4367 0.3261 0.8384
vn -0.8712 -0.3331 0.3606
vn -0.9195 0.0982 0.3806
vn -0.9216 -0.0738 0.3811
vn -0.6219 -0.2133 0.7535
vn -0.6115 -0.2018 0.7650
vn -0.6275 -0.2200 0.7469
vn 0.8181 -0.3208 0.4773
vn 0.4932 -0.2684 0.8275
vn 0.5036 -0.2665 0.8218
vn 0.4947 -0.2681 0.8267
vn 0.2727 -0.0670 0.9598
vn 0.6424 -0.0542 0.7645
vn 0.6430 -0.0550 0.7639
vn 0.6424 -0.0540 0.7644
vn 0.5064 -0.2326 0.8303
vn -0.1600 -0.2662 0.9505
vn -0.4411 -0.2097 0.8726
vn -0.7629 -0.3772 0.5250
vn -0.3913 0.0641 0.9180
vn -0.6506 -0.2098 0.7298
vn -0.5912 -0.4827 0.6461
vn 0.2069 0.1235 0.9705
vn -0.1224 -0.1275 0.9842
vn -0.8972 -0.2133 0.3867
vn -0.7318 -0.1066 0.6731
vn -0.8609 -0.4094 0.3020
vn 0.2934 0.1865 0.9376
vn 0.6767 -0.3538 0.6457
vn 0.5123 -0.2094 0.8329
vn 0.6415 -0.0609 0.7647
vn 0.6414 -0.0621 0.7646
vn 0.3194 -0.1106 0.9411
vn -0.1150 -0.1160 0.9866
vn -0.3166 -0.0969 0.9436
vn -0.3165 -0.1026 0.9430
vn -0.3166 -0.0977 0.9435
vn -0.7264 0.2787 0.6282
vn -0.4893 -0.0124 0.8720
vn -0.6511 0.1712 0.7394
vn 0.0362 0.6485 0.7604
vn -0.8598 0.1214 0.4960
vn 0.7680 0.4630 0.4425
vn 0.5494 0.5514 0.6278
vn 0.5777 0.5148 0.6334
vn 0.2548 0.5810 0.7730
vn -0.0241 0.4928 0.8698
vn 0.1678 0.5883 0.7911
vn -0.3223 0.5649 0.7596
vn -0.2887 0.5132 0.8082
vn -0.5734 0.4713 0.6702
vn 0.8541 0.2094 0.4761
vn 0.6126 0.3007 0.7310
vn 0.6278 0.2711 0.7296
vn 0.1156 0.2037 0.9722
vn 0.0527 0.2629 0.9634
vn 0.0108 0.1174 0.9930
vn -0.1509 0.1160 0.9817
vn -0.4006 0.2843 0.8710
vn 0.6834 0.1206 0.7201
vn 0.4481 -0.0828 0.8902
vn 0.2974 -0.0884 0.9506
vn 0.1194 0.1058 0.9872
vn -0.0675 0.1063 0.9920
vn -0.1459 0.0459 0.9882
vn -0.3192 0.0484 0.9465
vn 0.6903 0.1319 0.7114
vn 0.6210 0.1103 0.7760
vn 0.1056 0.1399 0.9845
vn 0.1539 -0.1586 0.9753
vn 0.4022 -0.2484 0.8812
vn -0.1107 -0.0570 0.9922
vn -0.2033 -0.1017 0.9738
vn -0.3715 -0.1437 0.9172
vn 0.5402 -0.1070 0.8347
vn 0.6066 -0.2804 0.7439
vn 0.2222 -0.3345 0.9158
vn -0.1371 -0.2503 0.9584
vn 0.7211 -0.3061 0.6215
vn -0.3296 -0.1276 0.9355
vn -0.5381 -0.3959 0.7441
vn 0.0840 -0.1525 0.9847
vn 0.7337 0.1961 0.6506
vn 0.4972 0.1016 0.8617
vn 0.0586 -0.0235 0.9980
vn 0.5175 0.4605 0.7212
vn 0.7471 0.4507 0.4885
vn -0.1867 0.4859 0.8538
vn -0.5700 0.4583 0.6820
vn -0.3904 0.4651 0.7946
vn 0.7954 0.2379 0.5575
vn 0.4344 0.3198 0.8420
vn 0.1804 0.4341 0.8826
vn 0.6530 0.4664 0.5968
vn 0.6370 0.3003 0.7100
vn -0.2699 0.4760 0.8370
vn -0.8075 0.2916 0.5127
vn 0.7925 -0.0432 0.6083
vn 0.5584 -0.1362 0.8183
vn 0.0310 -0.1689 0.9851
vn 0.4340 -0.1852 0.8817
vn 0.3134 -0.5302 0.7878
vn -0.3160 -0.7317 0.6039
vn 0.8012 -0.3736 0.4674
vn 0.4730 -0.3830 0.7935
vn 0.2417 -0.4671 0.8506
vn 0.6290 -0.2144 0.7473
vn 0.5182 0.0984 0.8496
vn -0.1649 0.1135 0.9798
vn -0.4262 0.3278 0.8431
vn -0.5519 -0.4246 0.7177
vn 0.2785 0.3611 0.8900
vn 0.6563 -0.4209 0.6262
vn 0.5050 -0.2663 0.8210
vn 0.3206 -0.0680 0.9448
vn -0.1126 -0.2322 0.9661
vn -0.3164 -0.1033 0.9430
vn 0.8017 -0.4378 0.4070
vn 0.0753 0.1946 0.9780
vn 0.6596 -0.3612 0.6591
vn 0.7168 -0.1700 0.6762
vn 0.2795 -0.0777 0.9570
vn -0.0963 -0.1016 0.9902
vn -0.5178 -0.2722 0.8111
vn -0.6131 -0.1694 0.7716
vn -0.6184 -0.1757 0.7660
vn -0.6132 -0.1695 0.7716
vn -0.3611 0.1332 0.9230
vn -0.3832 0.1519 0.9111
vn -0.3660 0.1374 0.9204
vn -0.6364 -0.6512 0.4135
vn -0.3935 0.1410 0.9084
vn -0.7598 0.5142 0.3977
vn -0.5699 0.3041 0.7634
vn -0.5162 0.5174 0.6825
vn -0.7742 0.0194 0.6327
vn -0.9111 0.2813 0.3013
vn -0.9121 -0.0698 0.4039
vn -0.7534 -0.2967 0.5868
vn 0.1091 -0.0850 0.9904
vn 0.2142 0.3759 0.9016
vn -0.8628 0.1488 0.4832
vn -0.4303 0.5965 0.6776
vn -0.3617 -0.0422 0.9314
vn -0.8231 -0.4388 0.3605
vn -0.5197 -0.3802 0.7651
vn -0.8369 0.2880 0.4654
vn -0.6793 -0.4004 0.6150
vn -0.7719 -0.5063 0.3845
vn -0.3689 0.0558 0.9278
vn -0.2898 0.0244 0.9568
vn -0.0908 0.2422 0.9660
vn -0.7703 0.5474 0.3272
vn -0.6829 0.0801 0.7262
vn -0.4749 -0.1386 0.8691
vn -0.8051 -0.4909 0.3330
vn -0.6370 -0.2319 0.7352
vn -0.8132 -0.5524 0.1833
vn -0.7448 -0.5868 0.3177
vn -0.8885 -0.4519 0.0796
vn -0.7973 0.4201 0.4334
vn -0.6078 -0.1632 0.7771
vn -0.3437 0.1184 0.9316
vn -0.0110 -0.1680 0.9857
usemtl (null)
s 1
f 19/1/1 20/2/2 8/3/3
f 24/4/4 12/5/4 11/6/4
f 18/7/5 6/8/6 5/9/7
f 21/10/8 9/11/9 8/3/10
f 23/12/11 24/4/12 11/6/13
f 50/13/14 51/14/15 39/15/16
f 39/15/17 40/16/18 28/17/19
f 44/18/20 45/19/21 33/20/22
f 16/21/23 17/22/23 5/9/23
f 22/23/24 10/24/25 9/11/26
f 143/25/27 144/26/27 132/27/27
f 131/28/28 132/27/28 120/29/28
f 119/30/29 120/29/29 108/31/29
f 107/32/30 108/31/30 96/33/30
f 95/34/31 96/33/31 84/35/31
f 83/36/32 84/35/32 72/37/32
f 72/37/33 60/38/33 59/39/33
f 60/38/34 48/40/34 47/41/34
f 37/42/35 38/43/36 26/44/37
f 36/45/38 24/4/38 23/12/38
f 142/46/39 143/25/39 131/28/39
f 130/47/40 131/28/40 119/30/40
f 118/48/41 119/30/41 107/32/41
f 106/49/42 107/32/42 95/34/42
f 94/50/43 95/34/43 83/36/43
f 82/51/44 83/36/44 71/52/44
f 71/52/45 59/39/45 58/53/45
f 59/39/46 47/41/46 46/54/46
f 35/55/47 48/40/48 36/45/49
f 26/44/50 27/56/51 15/57/52
f 141/58/53 142/46/53 130/47/53
f 129/59/54 130/47/54 118/48/54
f 117/60/55 118/48/56 106/49/57
f 106/49/58 94/50/58 93/61/58
f 93/61/59 94/50/59 82/51/59
f 82/51/60 70/62/60 69/63/60
f 70/62/61 58/53/62 57/64/63
f 58/53/64 46/54/64 45/19/64
f 4/65/65 15/57/66 16/21/67
f 43/66/68 44/18/69 32/67/70
f 140/68/71 141/58/72 129/59/73
f 128/69/74 129/59/75 117/60/55
f 117/60/76 105/70/76 104/71/76
f 105/70/77 93/61/77 92/72/77
f 93/61/78 81/73/78 80/74/78
f 80/74/79 81/73/79 69/63/79
f 68/75/80 69/63/80 57/64/80
f 56/76/81 57/64/81 45/19/81
f 19/1/82 7/77/83 6/8/84
f 40/16/85 41/78/86 29/79/87
f 140/68/88 128/69/88 127/80/88
f 128/69/89 116/81/90 115/82/91
f 116/81/92 104/71/92 103/83/92
f 104/71/93 92/72/93 91/84/93
f 92/72/94 80/74/94 79/85/94
f 79/85/95 80/74/95 68/75/95
f 67/86/96 68/75/96 56/76/96
f 55/87/97 56/76/97 44/18/97
f 27/56/98 28/17/99 16/21/100
f 26/44/37 14/88/101 25/89/102
f 138/90/103 139/91/103 127/80/103
f 126/92/104 127/80/104 115/82/104
f 114/93/105 115/82/105 103/83/105
f 102/94/106 103/83/106 91/84/106
f 90/95/107 91/84/107 79/85/107
f 79/85/108 67/86/108 66/96/108
f 67/86/109 55/87/109 54/97/109
f 55/87/110 43/66/110 42/98/110
f 46/54/111 34/99/112 33/20/113
f 47/41/114 35/55/115 34/99/116
f 137/100/117 138/90/117 126/92/117
f 125/101/118 126/92/118 114/93/118
f 113/102/119 114/93/119 102/94/119
f 101/103/120 102/94/120 90/95/120
f 89/104/121 90/95/121 78/105/121
f 77/106/122 78/105/122 66/96/122
f 66/96/123 54/97/123 53/107/123
f 54/97/124 42/98/124 41/78/124
f 42/98/125 30/108/126 29/79/127
f 30/108/128 18/7/129 17/22/130
f 137/100/131 125/101/131 124/109/131
f 125/101/132 113/102/132 112/110/132
f 112/110/133 113/102/133 101/103/133
f 101/103/134 89/104/134 88/111/134
f 89/104/135 77/106/135 76/112/135
f 76/112/136 77/106/136 65/113/136
f 64/114/137 65/113/137 53/107/137
f 52/115/138 53/107/138 41/78/138
f 34/99/139 22/23/140 21/10/141
f 33/20/142 21/10/143 20/2/144
f 136/116/145 124/109/145 123/117/145
f 124/109/146 112/110/146 111/118/146
f 112/110/147 100/119/147 99/120/147
f 100/119/148 88/111/148 87/121/148
f 87/121/149 88/111/149 76/112/149
f 76/112/150 64/114/151 63/122/152
f 64/114/138 52/115/138 51/14/138
f 51/14/138 52/115/138 40/16/138
f 3/123/153 14/88/154 15/57/155
f 31/124/156 32/67/157 20/2/158
f 135/125/159 123/117/159 122/126/159
f 123/117/160 111/118/161 110/127/162
f 111/118/163 99/120/163 98/128/163
f 99/120/164 87/121/165 86/129/166
f 87/121/167 75/130/167 74/131/167
f 74/131/168 75/130/168 63/122/168
f 62/132/169 63/122/169 51/14/169
f 49/133/170 50/13/171 38/43/172
f 38/43/173 39/15/174 27/56/175
f 3/123/176 2/134/177 13/135/178
f 134/136/179 122/126/179 121/137/179
f 122/126/180 110/127/180 109/138/180
f 110/127/181 98/128/181 97/139/181
f 98/128/182 86/129/166 85/140/183
f 86/129/184 74/131/184 73/141/184
f 73/141/185 74/131/185 62/132/185
f 61/142/186 62/132/187 50/13/188
f 35/55/189 23/12/190 22/23/191
f 13/135/192 2/134/192 1/143/192
f 23/12/193 10/24/193 22/23/193
f 143/25/194 132/27/194 131/28/194
f 131/28/195 120/29/195 119/30/195
f 119/30/196 108/31/196 107/32/196
f 107/32/197 96/33/197 95/34/197
f 95/34/198 84/35/198 83/36/198
f 83/36/199 72/37/199 71/52/199
f 72/37/200 59/39/200 71/52/200
f 60/38/201 47/41/201 59/39/201
f 48/40/202 35/55/202 47/41/202
f 142/46/203 131/28/203 130/47/203
f 130/47/204 119/30/204 118/48/204
f 118/48/205 107/32/205 106/49/205
f 106/49/206 95/34/206 94/50/206
f 94/50/207 83/36/207 82/51/207
f 82/51/208 71/52/208 70/62/208
f 71/52/209 58/53/209 70/62/209
f 59/39/210 46/54/210 58/53/210
f 141/58/72 130/47/211 129/59/73
f 129/59/75 118/48/56 117/60/55
f 117/60/212 106/49/212 105/70/212
f 106/49/213 93/61/213 105/70/213
f 93/61/214 82/51/214 81/73/214
f 82/51/215 69/63/215 81/73/215
f 70/62/61 57/64/63 69/63/216
f 58/53/217 45/19/217 57/64/217
f 140/68/218 129/59/218 128/69/218
f 128/69/219 117/60/219 116/81/219
f 117/60/220 104/71/220 116/81/220
f 105/70/221 92/72/221 104/71/221
f 93/61/222 80/74/222 92/72/222
f 80/74/223 69/63/223 68/75/223
f 68/75/224 57/64/224 56/76/224
f 56/76/225 45/19/225 44/18/225
f 140/68/226 127/80/226 139/91/226
f 128/69/89 115/82/91 127/80/227
f 116/81/228 103/83/228 115/82/228
f 104/71/229 91/84/229 103/83/229
f 92/72/230 79/85/230 91/84/230
f 79/85/231 68/75/231 67/86/231
f 67/86/232 56/76/232 55/87/232
f 55/87/233 44/18/233 43/66/233
f 138/90/234 127/80/234 126/92/234
f 126/92/235 115/82/235 114/93/235
f 114/93/236 103/83/236 102/94/236
f 102/94/237 91/84/237 90/95/237
f 90/95/238 79/85/238 78/105/238
f 79/85/239 66/96/239 78/105/239
f 67/86/240 54/97/240 66/96/240
f 55/87/241 42/98/241 54/97/241
f 137/100/242 126/92/242 125/101/242
f 125/101/243 114/93/243 113/102/243
f 113/102/244 102/94/244 101/103/244
f 101/103/245 90/95/245 89/104/245
f 89/104/246 78/105/246 77/106/246
f 77/106/247 66/96/247 65/113/247
f 66/96/248 53/107/248 65/113/248
f 54/97/138 41/78/138 53/107/138
f 137/100/249 124/109/249 136/116/249
f 125/101/250 112/110/250 124/109/250
f 112/110/251 101/103/251 100/119/251
f 101/103/252 88/111/252 100/119/252
f 89/104/253 76/112/253 88/111/253
f 76/112/254 65/113/254 64/114/254
f 64/114/138 53/107/138 52/115/138
f 52/115/138 41/78/138 40/16/138
f 136/116/255 123/117/255 135/125/255
f 124/109/256 111/118/256 123/117/256
f 112/110/257 99/120/257 111/118/257
f 100/119/258 87/121/258 99/120/258
f 87/121/259 76/112/259 75/130/259
f 76/112/260 63/122/260 75/130/260
f 64/114/151 51/14/261 63/122/152
f 51/14/262 40/16/262 39/15/262
f 135/125/263 122/126/263 134/136/263
f 123/117/264 110/127/264 122/126/264
f 111/118/161 98/128/265 110/127/162
f 99/120/164 86/129/166 98/128/182
f 87/121/266 74/131/266 86/129/266
f 74/131/267 63/122/267 62/132/267
f 62/132/187 51/14/268 50/13/188
f 134/136/269 121/137/269 133/144/269
f 122/126/270 109/138/270 121/137/270
f 110/127/271 97/139/271 109/138/271
f 98/128/272 85/140/272 97/139/272
f 86/129/273 73/141/273 85/140/273
f 73/141/274 62/132/274 61/142/274
f 61/142/275 50/13/275 49/133/275
f 28/17/276 29/79/277 17/22/278
f 43/66/279 31/124/280 30/108/281
f 25/89/102 14/88/101 13/135/282
f 31/124/283 19/1/284 18/7/285
f 19/1/1 8/3/3 7/77/286
f 18/7/5 5/9/7 17/22/287
f 21/10/8 8/3/10 20/2/288
f 23/12/11 11/6/13 10/24/289
f 50/13/14 39/15/16 38/43/290
f 39/15/17 28/17/19 27/56/291
f 44/18/20 33/20/22 32/67/292
f 22/23/24 9/11/26 21/10/293
f 35/55/47 36/45/49 23/12/294
f 26/44/50 15/57/52 14/88/295
f 4/65/65 16/21/67 5/9/296
f 43/66/68 32/67/70 31/124/297
f 19/1/82 6/8/84 18/7/298
f 40/16/85 29/79/87 28/17/299
f 27/56/98 16/21/100 15/57/300
f 26/44/37 25/89/102 37/42/35
f 46/54/111 33/20/113 45/19/301
f 47/41/114 34/99/116 46/54/302
f 42/98/125 29/79/127 41/78/303
f 30/108/128 17/22/130 29/79/304
f 34/99/139 21/10/141 33/20/305
f 33/20/142 20/2/144 32/67/306
f 3/123/153 15/57/155 4/65/307
f 31/124/156 20/2/158 19/1/308
f 49/133/170 38/43/172 37/42/309
f 38/43/173 27/56/175 26/44/310
f 3/123/176 13/135/178 14/88/311
f 35/55/189 22/23/191 34/99/312
f 28/17/276 17/22/278 16/21/313
f 43/66/279 30/108/281 42/98/314
f 31/124/283 18/7/285 30/108/315
